<?xml version="1.0"?>
<svg xmlns="http://www.w3.org/2000/svg" viewBox="0 0 64 64" width="512" height="512"><g id="pdf-file"><path d="M61,6H49.414L45.707,2.293A1,1,0,0,0,45,2H17a1,1,0,0,0-1,1V21H3a1,1,0,0,0-1,1V42a1,1,0,0,0,1,1H16V57a1,1,0,0,0,1,1h3v3a1,1,0,0,0,1,1H61a1,1,0,0,0,1-1V7A1,1,0,0,0,61,6ZM46,5.414,54.586,14H47a1,1,0,0,1-1-1ZM4,23H52V41H4ZM18,43H53a1,1,0,0,0,1-1V22a1,1,0,0,0-1-1H18V4H44v9a3,3,0,0,0,3,3h9V56H18ZM60,60H22V58H57a1,1,0,0,0,1-1V15a1,1,0,0,0-.293-.707L51.414,8H60Z" fill="#dddddd"/><path d="M30,25H24a1,1,0,0,0-1,1V38a1,1,0,0,0,1,1h6a3,3,0,0,0,3-3V28A3,3,0,0,0,30,25Zm1,11a1,1,0,0,1-1,1H25V27h5a1,1,0,0,1,1,1Z" fill="#dddddd"/><path d="M20,25H12a1,1,0,0,0-1,1V39h2V33h7a1,1,0,0,0,1-1V26A1,1,0,0,0,20,25Zm-1,6H13V27h6Z" fill="#dddddd"/><path d="M35,26V39h2V33h6V31H37V27h8V25H36A1,1,0,0,0,35,26Z" fill="#dddddd"/></g></svg>
